<svg xmlns="http://www.w3.org/2000/svg" width="349.985" height="139.223" viewBox="0 0 349.985 139.223">
  <g id="img-pick" transform="translate(-753.563 -220.945)">
    <g id="Ellipse_93" data-name="Ellipse 93" transform="matrix(0.985, -0.174, 0.174, 0.985, 898.42, 314.373)" fill="none" stroke="#2196f3" stroke-width="2">
      <ellipse cx="99" cy="12" rx="99" ry="12" stroke="none"/>
      <ellipse cx="99" cy="12" rx="98" ry="11" fill="none"/>
    </g>
    <g id="Path_108" data-name="Path 108" transform="matrix(0.985, -0.174, 0.174, 0.985, 906.42, 336.373)" fill="none">
      <path d="M99,0c37.016,0,93.667-10.337,93.667-10.337S184.9,6.017,184.9,8.158c0,6.627-31.245,14.106-85.921,14.106S4.809,11.439,4.809,11.439l-8.163-21.3S58.594,0,99,0Z" stroke="none"/>
      <path d="M 189.2270660400391 -7.702119827270508 C 183.7679595947266 -6.762973785400391 172.9252471923828 -4.966571807861328 159.9868316650391 -3.187106132507324 C 149.0478820800781 -1.682632446289062 138.7687225341797 -0.4836854934692383 129.4349060058594 0.3764200210571289 C 117.7438583374023 1.453736305236816 107.5040969848633 1.999999046325684 98.99999237060547 1.999999046325684 C 89.73030090332031 1.999999046325684 78.56040954589844 1.479209899902344 65.80059051513672 0.4520778656005859 C 55.60932922363281 -0.368316650390625 44.38270568847656 -1.511921882629395 32.43251037597656 -2.947027206420898 C 17.68856811523438 -4.717615127563477 5.433303833007812 -6.505598068237305 -0.25390625 -7.364936828613281 L 6.308990478515625 9.763958930969238 C 9.181549072265625 10.49728202819824 18.28157043457031 12.70495128631592 31.78012084960938 14.88886737823486 C 41.42683410644531 16.44960403442383 51.39967346191406 17.6931037902832 61.42162322998047 18.58478927612305 C 73.94414520263672 19.69897270202637 86.57898712158203 20.26391983032227 98.97514343261719 20.26391983032227 C 112.0008316040039 20.26391983032227 124.2275390625 19.83786773681641 135.3156433105469 18.99757766723633 C 145.4841156005859 18.22699928283691 154.4878540039062 17.12742042541504 162.0767822265625 15.72939395904541 C 169.0147552490234 14.45126247406006 174.6478576660156 12.92715644836426 178.3670654296875 11.32181453704834 C 180.0335388183594 10.60252571105957 181.3353118896484 9.854999542236328 182.131591796875 9.160104751586914 C 182.7586212158203 8.612919807434082 182.8959350585938 8.251288414001465 182.8959350585938 8.158103942871094 C 182.8959350585938 7.541709423065186 182.8959350585938 6.394393920898438 186.9549102783203 -2.706789970397949 C 187.75439453125 -4.499423980712891 188.5581970214844 -6.256059646606445 189.2270660400391 -7.702119827270508 M 192.6670379638672 -10.33692169189453 C 192.6670379638672 -10.33692169189453 184.8959350585938 6.017393589019775 184.8959350585938 8.158103942871094 C 184.8959350585938 14.78549957275391 153.6513366699219 22.26391983032227 98.97514343261719 22.26391983032227 C 44.29896545410156 22.26391983032227 4.809036254882812 11.4391040802002 4.809036254882812 11.4391040802002 L -3.353775024414062 -9.865501403808594 C -3.353775024414062 -9.865501403808594 58.59429931640625 -9.5367431640625e-07 98.99999237060547 -9.5367431640625e-07 C 136.0154876708984 -9.5367431640625e-07 192.6670379638672 -10.33692169189453 192.6670379638672 -10.33692169189453 Z" stroke="none" fill="#2196f3"/>
    </g>
    <g id="Path_110" data-name="Path 110" transform="matrix(0.985, -0.174, 0.174, 0.985, 910.42, 340.373)" fill="#2196f3" opacity="0.18">
      <path d="M 98.97514343261719 18.50896644592285 C 86.53074645996094 18.50896644592285 73.84709930419922 17.98911666870117 61.27647018432617 16.96381759643555 C 51.22022247314453 16.14361572265625 41.21379852294922 15.00001621246338 31.53519630432129 13.56474208831787 C 17.11090469360352 11.42573356628418 7.712571620941162 9.265949249267578 5.536264896392822 8.74632740020752 L -1.751552581787109 -8.667263984680176 C 2.867010593414307 -8.018031120300293 16.17431831359863 -6.197079658508301 32.56169509887695 -4.39543342590332 C 44.49792098999023 -3.083133459091187 55.71034622192383 -2.037458419799805 65.8875732421875 -1.287458300590515 C 78.61856842041016 -0.3492333590984344 89.75922393798828 0.1264666616916656 99 0.1264666616916656 C 107.4710235595703 0.1264666616916656 117.6773452758789 -0.3722083568572998 129.33544921875 -1.355733394622803 C 138.6532440185547 -2.141808271408081 148.9162292480469 -3.237733364105225 159.8392486572266 -4.613058567047119 C 174.4288024902344 -6.450058460235596 186.3470916748047 -8.306248664855957 190.8731079101562 -9.032111167907715 C 190.1208343505859 -7.5570068359375 188.9974212646484 -5.33241605758667 187.8824920654297 -3.043758392333984 C 183.8959503173828 5.139666557312012 183.8959503173828 6.159616470336914 183.8959503173828 6.595166683197021 C 183.8959503173828 6.977691650390625 183.5278930664062 8.371216773986816 178.7921447753906 10.24259185791016 C 175.0009155273438 11.7407169342041 169.2886505126953 13.15801620483398 162.2728271484375 14.34124183654785 C 154.6463165283203 15.62746620178223 145.6042022705078 16.63869094848633 135.3975677490234 17.34681701660156 C 124.2823181152344 18.11796760559082 112.0280456542969 18.50896644592285 98.97514343261719 18.50896644592285 Z" stroke="none"/>
      <path d="M 189.0953216552734 -7.737281799316406 C 183.6044311523438 -6.873296737670898 172.8184204101562 -5.239394187927246 159.9641723632812 -3.620903968811035 C 149.0276184082031 -2.243878364562988 138.7509155273438 -1.146483421325684 129.4195098876953 -0.3592729568481445 C 117.7335433959961 0.6265954971313477 107.4989395141602 1.126463890075684 98.99999237060547 1.126463890075684 C 89.73477935791016 1.126463890075684 78.56943511962891 0.6498327255249023 65.81406402587891 -0.2901678085327148 C 55.62496948242188 -1.041035652160645 44.40048217773438 -2.087825775146484 32.45240783691406 -3.40140438079834 C 17.7777099609375 -5.014769554138184 5.568008422851562 -6.643993377685547 -0.15167236328125 -7.434659957885742 L 6.262069702148438 7.890340805053711 C 9.121917724609375 8.559267997741699 18.19081115722656 10.57494640350342 31.68191528320312 12.57556915283203 C 41.33888244628906 14.00762176513672 51.32327270507812 15.14870071411133 61.35774993896484 15.96714782714844 C 73.90145874023438 16.99022674560547 86.55777740478516 17.50896453857422 98.97514343261719 17.50896453857422 C 111.6792221069336 17.50896453857422 123.6338272094727 17.13764762878418 134.5068664550781 16.40535926818848 C 144.4979858398438 15.73246383666992 153.4019165039062 14.76935863494873 160.9712524414062 13.54283237457275 C 167.90625 12.41909599304199 173.6433258056641 11.06943798065186 177.5622253417969 9.639780044555664 C 182.2111511230469 7.94379997253418 182.8450775146484 6.687924385070801 182.8959503173828 6.56644344329834 C 182.8968505859375 5.931180000305176 182.9573059082031 4.783058643341064 186.9834899902344 -3.481719970703125 C 187.719970703125 -4.993541717529297 188.4601898193359 -6.477558135986328 189.0953216552734 -7.737281799316406 M 192.6670379638672 -10.3369312286377 C 192.6670379638672 -10.3369312286377 184.8959350585938 4.635358810424805 184.8959350585938 6.595148086547852 C 184.8959350585938 12.66251659393311 153.6513366699219 19.50896453857422 98.97514343261719 19.50896453857422 C 44.29896545410156 19.50896453857422 4.809036254882812 9.598911285400391 4.809036254882812 9.598911285400391 L -3.353775024414062 -9.905324935913086 C -3.353775024414062 -9.905324935913086 58.59429931640625 -0.8735361099243164 98.99999237060547 -0.8735361099243164 C 136.0154876708984 -0.8735361099243164 192.6670379638672 -10.3369312286377 192.6670379638672 -10.3369312286377 Z" stroke="none" fill="#2196f3"/>
    </g>
    <path id="Path_109" data-name="Path 109" d="M23557.322-11195.191s-144.42-3.773-146.73,8.712,150.283-6.011,150.283-6.011" transform="translate(-22656 11521)" fill="none" stroke="#2196f3" stroke-width="2"/>
    <path id="Path_111" data-name="Path 111" d="M23557.322-11195.191s-144.42-3.773-146.73,8.712,150.283-6.011,150.283-6.011" transform="translate(-22455.148 11932.178) rotate(-1)" fill="#2196f3" stroke="#2196f3" stroke-width="2" opacity="0.31"/>
    <g id="Ellipse_94" data-name="Ellipse 94" transform="matrix(0.996, -0.087, 0.087, 0.996, 759.811, 330.664)" fill="none" stroke="#2196f3" stroke-width="2">
      <ellipse cx="9" cy="3" rx="9" ry="3" stroke="none"/>
      <ellipse cx="9" cy="3" rx="8" ry="2" fill="none"/>
    </g>
    <g id="Ellipse_95" data-name="Ellipse 95" transform="translate(942 256)" fill="none" stroke="#2196f3" stroke-width="2">
      <circle cx="13" cy="13" r="13" stroke="none"/>
      <circle cx="13" cy="13" r="12" fill="none"/>
    </g>
    <g id="Ellipse_99" data-name="Ellipse 99" transform="translate(946 259)" fill="#2196f3" stroke="#2196f3" stroke-width="2" opacity="0.24">
      <circle cx="11" cy="11" r="11" stroke="none"/>
      <circle cx="11" cy="11" r="10" fill="none"/>
    </g>
    <g id="Rectangle_159" data-name="Rectangle 159" transform="translate(997 259)" fill="none" stroke="#2196f3" stroke-width="2">
      <rect width="21" height="21" stroke="none"/>
      <rect x="1" y="1" width="19" height="19" fill="none"/>
    </g>
    <g id="Rectangle_160" data-name="Rectangle 160" transform="translate(1001 262)" fill="#2196f3" stroke="#2196f3" stroke-width="2" opacity="0.14">
      <rect width="16" height="16" stroke="none"/>
      <rect x="1" y="1" width="14" height="14" fill="none"/>
    </g>
    <path id="Path_112" data-name="Path 112" d="M23628.475-11272.171l-3.578,22.521,21.469-7.787Z" transform="translate(-22656 11495)" fill="none" stroke="#2196f3" stroke-width="2"/>
    <path id="Path_117" data-name="Path 117" d="M23627.758-11272.171l-2.863,18.011,17.172-6.228Z" transform="translate(-22651.701 11498)" fill="#2196f3" stroke="#2196f3" stroke-width="2" opacity="0.2"/>
    <path id="Path_114" data-name="Path 114" d="M0,0A9.594,9.594,0,0,1,4.488,1.815,9.839,9.839,0,0,1,7,6" transform="translate(925.5 282.5)" fill="#2196f3" stroke="#2196f3" stroke-linecap="round" stroke-width="3"/>
    <path id="Path_115" data-name="Path 115" d="M0,3a11.254,11.254,0,0,0,4.932-.216A6.51,6.51,0,0,0,8,0" transform="translate(1019.5 245.5)" fill="#2196f3" stroke="#2196f3" stroke-linecap="round" stroke-width="3"/>
    <path id="Path_116" data-name="Path 116" d="M12,8S7.79,9.064,4.494,7.594a4.193,4.193,0,0,1-.545-.318C.949,5.276,0,0,0,0" transform="translate(943.5 231.5)" fill="none" stroke="#2196f3" stroke-linecap="round" stroke-width="4"/>
    <g id="Ellipse_96" data-name="Ellipse 96" transform="translate(927 263)" fill="#2196f3" stroke="#2196f3" stroke-width="1">
      <circle cx="2" cy="2" r="2" stroke="none"/>
      <circle cx="2" cy="2" r="1.5" fill="none"/>
    </g>
    <g id="Ellipse_97" data-name="Ellipse 97" transform="translate(998 240)" fill="#2196f3" stroke="#2196f3" stroke-width="1">
      <circle cx="4" cy="4" r="4" stroke="none"/>
      <circle cx="4" cy="4" r="3.5" fill="none"/>
    </g>
    <g id="Ellipse_98" data-name="Ellipse 98" transform="translate(980 271)" fill="#2196f3" stroke="#2196f3" stroke-width="1">
      <circle cx="3" cy="3" r="3" stroke="none"/>
      <circle cx="3" cy="3" r="2.5" fill="none"/>
    </g>
  </g>
</svg>
