<svg xmlns="http://www.w3.org/2000/svg" width="59.238" height="80.509" viewBox="0 0 59.238 80.509">
  <g id="img-do-finger" transform="translate(-41.83)">
    <path id="Path_145" data-name="Path 145" d="M96.687,89.34A17.907,17.907,0,0,0,85.7,83.352l-9.786-1.535V64.738a7.364,7.364,0,0,0-7.356-7.355h-.11a7.364,7.364,0,0,0-7.356,7.355V92.167L50.974,87.831A6.56,6.56,0,0,0,41.83,93.86v.092a6.565,6.565,0,0,0,2.2,4.9l17.061,15.171v7.37a1.907,1.907,0,1,0,3.814,0v-8.226a1.906,1.906,0,0,0-.64-1.425L46.565,96a2.748,2.748,0,0,1-.921-2.052v-.092a2.746,2.746,0,0,1,3.828-2.524l12.773,5.474a1.89,1.89,0,0,0,.941.145l.063-.009c.039-.005.079-.01.118-.018s.067-.016.1-.024.051-.012.076-.02.075-.025.112-.039l.061-.022c.036-.015.071-.032.106-.048s.042-.019.062-.03.061-.035.092-.053.047-.027.069-.042.049-.035.074-.053.052-.037.077-.058.039-.034.058-.051.054-.048.08-.073.033-.035.05-.053.051-.053.075-.082.035-.045.052-.067.04-.051.058-.078.044-.07.066-.106c.01-.017.021-.033.031-.05a1.893,1.893,0,0,0,.237-.922V64.738A3.546,3.546,0,0,1,68.446,61.2h.11A3.546,3.546,0,0,1,72.1,64.738V83.051a1.944,1.944,0,0,0,.012.208,1.9,1.9,0,0,0,1.6,2.073L85.12,87.121l.027,0a14.157,14.157,0,0,1,12.108,13.95v.195a20.242,20.242,0,0,1-2.277,9.307l-5.173,9.938a1.907,1.907,0,1,0,3.382,1.761l5.173-9.938a24.068,24.068,0,0,0,2.708-11.068v-.195A17.9,17.9,0,0,0,96.687,89.34Z" transform="translate(0 -42.794)" fill="#2196f3"/>
    <path id="Path_146" data-name="Path 146" d="M141.142,9.608A1.907,1.907,0,0,0,143.049,7.7V1.907a1.907,1.907,0,1,0-3.814,0V7.7A1.907,1.907,0,0,0,141.142,9.608Z" transform="translate(-72.64 0)" fill="#2196f3"/>
    <path id="Path_147" data-name="Path 147" d="M193.189,93.3a1.907,1.907,0,0,0,1.907,1.907h5.794a1.907,1.907,0,1,0,0-3.814H195.1A1.907,1.907,0,0,0,193.189,93.3Z" transform="translate(-112.876 -68.16)" fill="#2196f3"/>
    <path id="Path_148" data-name="Path 148" d="M189.15,33.265a1.9,1.9,0,0,0,1.349-.558l4.1-4.1a1.907,1.907,0,0,0-2.7-2.7l-4.1,4.1a1.907,1.907,0,0,0,1.349,3.255Z" transform="translate(-108.442 -18.908)" fill="#2196f3"/>
    <path id="Path_149" data-name="Path 149" d="M73.865,32.705a1.907,1.907,0,0,0,2.7-2.7l-4.1-4.1a1.907,1.907,0,0,0-2.7,2.7Z" transform="translate(-20.418 -18.907)" fill="#2196f3"/>
    <path id="Path_150" data-name="Path 150" d="M58.826,95.211H64.62a1.907,1.907,0,1,0,0-3.814H58.826a1.907,1.907,0,1,0,0,3.814Z" transform="translate(-11.253 -68.16)" fill="#2196f3"/>
  </g>
</svg>
