<svg xmlns="http://www.w3.org/2000/svg" width="205.793" height="409.354" viewBox="0 0 205.793 409.354">
  <g id="img-fun-circle" transform="translate(-1683 -4473.906)">
    <g id="Group_9" data-name="Group 9" transform="translate(1683 4473.906)">
      <path id="spiral" d="M73.434,159.583A84.873,84.873,0,0,0,158.212,74.8,74.8,74.8,0,0,0,8.6,74.8a64.831,64.831,0,0,0,129.661,0,54.857,54.857,0,1,0-109.713,0,44.883,44.883,0,1,0,89.766,0,34.909,34.909,0,1,0-69.818,0,24.935,24.935,0,0,0,49.87,0,14.961,14.961,0,0,0-29.922,0v4.987h9.974V74.8a4.987,4.987,0,1,1,9.974,0,14.961,14.961,0,1,1-29.922,0,24.935,24.935,0,1,1,49.87,0,34.909,34.909,0,0,1-69.818,0,44.883,44.883,0,0,1,89.766,0,54.857,54.857,0,0,1-109.713,0,64.831,64.831,0,1,1,129.661,0,74.814,74.814,0,0,1-139.6,37.4L0,117.2a85.1,85.1,0,0,0,73.434,42.384Zm0,0" fill="#2196f3"/>
    </g>
    <path id="Path_61" data-name="Path 61" d="M0,0,.5,245.409" transform="translate(1754.825 4637.846)" fill="#2196f3" stroke="#2196f3" stroke-width="6"/>
    <g id="Group_10" data-name="Group 10" transform="translate(1781.854 4632.869)">
      <path id="spiral-2" data-name="spiral" d="M49.636,107.866a57.368,57.368,0,0,0,57.3-57.3,50.562,50.562,0,0,0-101.125,0,43.821,43.821,0,1,0,87.641,0,37.079,37.079,0,0,0-74.158,0,30.337,30.337,0,1,0,60.675,0,23.6,23.6,0,1,0-47.192,0,16.854,16.854,0,1,0,33.708,0,10.112,10.112,0,0,0-20.225,0v3.371h6.742V50.562a3.371,3.371,0,0,1,6.742,0,10.112,10.112,0,1,1-20.225,0,16.854,16.854,0,0,1,33.708,0,23.6,23.6,0,0,1-47.192,0,30.337,30.337,0,0,1,60.675,0,37.079,37.079,0,1,1-74.158,0,43.821,43.821,0,0,1,87.641,0A50.569,50.569,0,0,1,5.836,75.84L0,79.218a57.524,57.524,0,0,0,49.636,28.649Zm0,0" fill="#2196f3"/>
    </g>
    <path id="Path_62" data-name="Path 62" d="M0,0V132.425" transform="translate(1835.396 4750.83)" fill="#2196f3" stroke="#2196f3" stroke-width="6"/>
  </g>
</svg>
