<svg xmlns="http://www.w3.org/2000/svg" width="130.933" height="168.803" viewBox="0 0 130.933 168.803">
  <g id="img-why-easy" transform="translate(-339.52 -6135.197)">
    <ellipse id="Ellipse_123" data-name="Ellipse 123" cx="26.5" cy="7.5" rx="26.5" ry="7.5" transform="translate(368 6289)" fill="#e2eafa"/>
    <g id="select" transform="translate(405.727 6135.197) rotate(39)">
      <g id="Group_144" data-name="Group 144" transform="translate(0 0)">
        <path id="Path_169" data-name="Path 169" d="M74.519,30.685a8.738,8.738,0,0,0-4.874,1.482,8.768,8.768,0,0,0-13.15-4.383,8.789,8.789,0,0,0-8.276-5.865A8.7,8.7,0,0,0,43.835,23.1V8.767a8.767,8.767,0,1,0-17.534,0V60.015l-12.05-6.027A13.211,13.211,0,0,0,8.373,52.6,8.391,8.391,0,0,0,2.455,66.923L30.8,95.266a33.7,33.7,0,0,0,24,9.938A28.526,28.526,0,0,0,83.287,76.711V39.452A8.776,8.776,0,0,0,74.519,30.685ZM78.9,76.711A24.139,24.139,0,0,1,54.789,100.82,29.316,29.316,0,0,1,33.9,92.163L5.554,63.819a4,4,0,0,1,2.819-6.834,8.819,8.819,0,0,1,3.919.925l15.224,7.61a2.191,2.191,0,0,0,3.169-1.959V8.767a4.383,4.383,0,0,1,8.767,0V50.41a2.192,2.192,0,1,0,4.384,0V30.685a4.383,4.383,0,1,1,8.767,0V50.41a2.192,2.192,0,1,0,4.384,0V35.068a4.383,4.383,0,1,1,8.767,0V50.41a2.192,2.192,0,0,0,4.384,0V39.452a4.383,4.383,0,1,1,8.767,0Z" fill="#4f81e2"/>
      </g>
    </g>
    <line id="Line_86" data-name="Line 86" x1="11.973" y1="11.973" transform="translate(368.436 6159.743)" fill="none" stroke="#4f81e2" stroke-linecap="round" stroke-width="5"/>
    <line id="Line_87" data-name="Line 87" x1="3.991" y1="10.976" transform="translate(382.405 6156.75)" fill="none" stroke="#4f81e2" stroke-linecap="round" stroke-width="5"/>
    <line id="Line_88" data-name="Line 88" y1="14.967" x2="3.991" transform="translate(393.381 6152.758)" fill="none" stroke="#4f81e2" stroke-linecap="round" stroke-width="5"/>
  </g>
</svg>
