<svg xmlns="http://www.w3.org/2000/svg" width="28.843" height="27.016" viewBox="0 0 28.843 27.016">
  <g id="img-question-corner" transform="translate(-1220.146 -1804.75)">
    <path id="Path_76" data-name="Path 76" d="M4,0C6.209,0,6.133,4.029,6.133,9A21.344,21.344,0,0,1,4,18,19.1,19.1,0,0,1,1.525,9C1.525,4.029,1.791,0,4,0Z" transform="translate(1235.353 1809.551) rotate(38)" fill="#f32194"/>
    <path id="Path_78" data-name="Path 78" d="M4,0C6.209,0,6.133,4.029,6.133,9A21.344,21.344,0,0,1,4,18,19.1,19.1,0,0,1,1.525,9C1.525,4.029,1.791,0,4,0Z" transform="translate(1246.494 1818.841) rotate(66)" fill="#f32194"/>
    <path id="Path_77" data-name="Path 77" d="M4,0C6.209,0,6.133,4.029,6.133,9A21.344,21.344,0,0,1,4,18,19.1,19.1,0,0,1,1.525,9C1.525,4.029,1.791,0,4,0Z" transform="translate(1221.455 1804.512) rotate(9)" fill="#f32194"/>
  </g>
</svg>
