<svg xmlns="http://www.w3.org/2000/svg" width="2296.951" height="959.391" viewBox="0 0 2296.951 959.391">
  <g id="img-do-bg" transform="translate(208 -2502.596)">
    <path id="Path_156" data-name="Path 156" d="M149.12,41.092c82.288,12.19,255.131-80.2,255.131-3.154S274.927,289.986,197.883,289.986,0,216.544,0,139.5,66.832,28.9,149.12,41.092Z" transform="translate(1797.179 2727.957) rotate(141)" fill="#fff" opacity="0.19"/>
    <path id="Path_153" data-name="Path 153" d="M149.12,41.092c82.288,12.19,244.832-55.71,244.832,21.334S274.927,289.986,197.883,289.986,0,216.544,0,139.5,66.832,28.9,149.12,41.092Z" transform="translate(278 2666)" fill="#fff" opacity="0.19"/>
    <path id="Path_154" data-name="Path 154" d="M149.12,41.092c82.288,12.19,244.832-55.71,244.832,21.334S274.927,289.986,197.883,289.986,0,216.544,0,139.5,66.832,28.9,149.12,41.092Z" transform="translate(885 3172)" fill="#fff" opacity="0.19"/>
    <path id="Path_155" data-name="Path 155" d="M149.12,41.092c82.288,12.19,244.832-55.71,244.832,21.334S274.927,289.986,197.883,289.986,0,216.544,0,139.5,66.832,28.9,149.12,41.092Z" transform="translate(1695 3084)" fill="#fff" opacity="0.19"/>
    <g id="Group_150" data-name="Group 150">
      <path id="Path_152" data-name="Path 152" d="M149.12,41.092c82.288,12.19,244.832-55.71,244.832,21.334S274.927,289.986,197.883,289.986,0,216.544,0,139.5,66.832,28.9,149.12,41.092Z" transform="translate(-208 3028)" fill="#fff" opacity="0.19"/>
      <path id="Path_157" data-name="Path 157" d="M22.5,0C34.926,0,54.051,6.362,54.051,18.788S34.926,45,22.5,45a22.5,22.5,0,0,1,0-45Z" transform="translate(217 3018)" fill="#fff" opacity="0.17"/>
    </g>
  </g>
</svg>
