<svg xmlns="http://www.w3.org/2000/svg" width="325.861" height="304.959" viewBox="0 0 325.861 304.959">
  <g id="img-complex-bg-2" transform="translate(-100.93 -1780.005)">
    <g id="Group_23" data-name="Group 23" transform="translate(-11 1121)">
      <g id="Path_33" data-name="Path 33" transform="translate(111.93 712.25) rotate(-11)" fill="none">
        <path d="M0,0H45.667s-3,12.6-1.069,21.133c1.719,7.614,8.149,11.216,12.818,11.216,4.435,0,10.082-1.794,13.887-9.881S72.638,0,72.638,0h47.852V50.509s13.5-7.171,23.717-5.341c9.916,1.776,14.955,8.011,14.955,16.29s-4.7,14.127-14.955,16.824c-9.876,2.6-23.717-4.006-23.717-4.006V125.03H0Z" stroke="none"/>
        <path d="M 5 5.000007629394531 L 5 120.0295562744141 L 115.4905395507812 120.0295562744141 L 115.4905395507812 74.27607727050781 L 115.4905395507812 66.35100555419922 L 122.6433944702148 69.76328277587891 C 122.6646194458008 69.77340698242188 124.8540954589844 70.8046875 127.9912719726562 71.82798767089844 C 132.1206359863281 73.1749267578125 135.9607238769531 73.88690185546875 139.0962982177734 73.88690185546875 C 140.5320892333984 73.88690185546875 141.8239898681641 73.73863220214844 142.9360961914062 73.44620513916016 C 146.9697418212891 72.38558197021484 149.9364471435547 70.78463745117188 151.7538452148438 68.68783569335938 C 153.3746490478516 66.81783294677734 154.1625366210938 64.45285797119141 154.1625366210938 61.45770645141602 C 154.1625366210938 58.50520324707031 153.3219451904297 56.06110382080078 151.6640625 54.19332885742188 C 149.8357696533203 52.13356018066406 147.0304870605469 50.75278472900391 143.3261108398438 50.08935546875 C 142.5080718994141 49.94285583496094 141.6030120849609 49.86860656738281 140.6361236572266 49.86865997314453 C 137.3568725585938 49.86885833740234 133.2817687988281 50.7205810546875 128.8513488769531 52.33180999755859 C 125.3726043701172 53.59693145751953 122.9024963378906 54.88950347900391 122.8323822021484 54.92634582519531 L 115.4905395507812 58.85028076171875 L 115.4905395507812 50.50868225097656 L 115.4905395507812 5.000007629394531 L 78.23542022705078 5.000007629394531 C 78.30495452880859 5.945938110351562 78.36228179931641 6.971054077148438 78.39546966552734 8.047409057617188 C 78.60846710205078 14.95538330078125 77.74454498291016 20.52358245849609 75.82766723632812 24.59730529785156 C 73.67454528808594 29.17310333251953 70.75868988037109 32.58345794677734 67.16109466552734 34.73355865478516 C 64.25689697265625 36.46923065185547 60.97831726074219 37.34930419921875 57.41644287109375 37.34930419921875 C 53.83139038085938 37.34930419921875 49.98041534423828 35.96760559082031 46.85094451904297 33.55845642089844 C 43.22941589355469 30.77055358886719 40.76383972167969 26.85470581054688 39.72081756591797 22.23442840576172 C 38.79571533203125 18.13715362548828 38.70321655273438 12.93385314941406 39.44584655761719 6.769035339355469 C 39.51961517333984 6.156623840332031 39.59821319580078 5.56488037109375 39.67890167236328 5.000007629394531 L 5 5.000007629394531 M 0 7.62939453125e-06 L 45.66669464111328 7.62939453125e-06 C 45.66669464111328 7.62939453125e-06 42.67161560058594 12.60098266601562 44.59804534912109 21.13323211669922 C 46.31689453125 28.74710845947266 52.74748992919922 32.34930419921875 57.41644287109375 32.34930419921875 C 61.85137176513672 32.34930419921875 67.49806976318359 30.55580902099609 71.30348968505859 22.46848297119141 C 75.10894012451172 14.38115692138672 72.63811492919922 7.62939453125e-06 72.63811492919922 7.62939453125e-06 L 120.4905395507812 7.62939453125e-06 L 120.4905395507812 50.50868225097656 C 120.4905395507812 50.50868225097656 131.1052551269531 44.86920928955078 140.6358184814453 44.86865997314453 C 141.8526458740234 44.86859130859375 143.0504150390625 44.96044158935547 144.2075958251953 45.16767883300781 C 154.1233367919922 46.94350433349609 159.1625366210938 53.17918395996094 159.1625366210938 61.45770645141602 C 159.1625366210938 69.73623657226562 154.4664611816406 75.58433532714844 144.2075958251953 78.28182983398438 C 142.5848693847656 78.70851898193359 140.8541107177734 78.88691711425781 139.0962982177734 78.88691711425781 C 130.15576171875 78.88691711425781 120.4905395507812 74.27607727050781 120.4905395507812 74.27607727050781 L 120.4905395507812 125.0295562744141 L 0 125.0295562744141 L 0 7.62939453125e-06 Z" stroke="none" fill="#e9f1ff"/>
      </g>
      <g id="Path_34" data-name="Path 34" transform="translate(292.226 819.261) rotate(-83)" fill="none">
        <path d="M0,0H46.326s-1.954,14.1,0,22.756c1.744,7.724,7.186,11.425,14.488,11.793S73.39,31.4,75.341,20.344A41.819,41.819,0,0,0,73.686,0h48.543V51.237s13.691-7.275,24.059-5.418c10.059,1.8,15.171,8.127,15.171,16.525s-4.764,14.33-15.171,17.067c-10.019,2.634-24.059-4.064-24.059-4.064v51.486H0Z" stroke="none"/>
        <path d="M 5 5.000007629394531 L 5 121.833610534668 L 117.2290954589844 121.833610534668 L 117.2290954589844 75.34780883789062 L 117.2290954589844 67.42271423339844 L 124.3819427490234 70.83503723144531 C 124.4035186767578 70.84530639648438 126.6289215087891 71.89350891113281 129.815673828125 72.9329833984375 C 134.0117645263672 74.30171203613281 137.9149780273438 75.02518463134766 141.1033172607422 75.02518463134766 C 142.5659790039062 75.02518463134766 143.8826751708984 74.87396240234375 145.0168914794922 74.57572937011719 C 149.1230163574219 73.49606323242188 152.1447143554688 71.86443328857422 153.9980163574219 69.72618103027344 C 155.6540679931641 67.81553649902344 156.4590911865234 65.40095520019531 156.4590911865234 62.344482421875 C 156.4590911865234 59.33120727539062 155.6002502441406 56.83573150634766 153.9063720703125 54.92740631103516 C 152.0406951904297 52.82550811767578 149.1810760498047 51.41703033447266 145.4069671630859 50.74113464355469 C 144.5727691650391 50.59173583984375 143.6503448486328 50.51603698730469 142.6652984619141 50.51608276367188 C 139.3298950195312 50.51628112792969 135.186767578125 51.38208770751953 130.6837768554688 53.01988220214844 C 127.1483001708984 54.3057861328125 124.6388244628906 55.61945343017578 124.5708923339844 55.65518951416016 L 117.2290954589844 59.57875823974609 L 117.2290954589844 51.23748779296875 L 117.2290954589844 5.000007629394531 L 80.1373291015625 5.000007629394531 C 80.89362335205078 9.18804931640625 81.37187194824219 14.94062042236328 80.26504516601562 21.21260833740234 C 79.17554473876953 27.38640594482422 77.09724426269531 31.89508056640625 73.91139221191406 34.99626159667969 C 70.79014587402344 38.03456115722656 66.72081756591797 39.57511138916016 61.81642150878906 39.57511138916016 C 61.40644836425781 39.57511138916016 60.98409271240234 39.56428527832031 60.56124877929688 39.54293060302734 C 55.76271820068359 39.30078125 51.67664337158203 37.89288330078125 48.41647338867188 35.35838317871094 C 46.66929626464844 34.00008392333984 45.18972015380859 32.32898712158203 44.01886749267578 30.39148712158203 C 42.85859680175781 28.47148132324219 41.99376678466797 26.27303314208984 41.44841766357422 23.85730743408203 C 40.53684234619141 19.81988525390625 40.2513427734375 14.44016265869141 40.59984588623047 7.867561340332031 C 40.65363311767578 6.853057861328125 40.71862030029297 5.889556884765625 40.78778839111328 5.000007629394531 L 5 5.000007629394531 M 0 7.62939453125e-06 L 46.32564544677734 7.62939453125e-06 C 46.32564544677734 7.62939453125e-06 44.37144470214844 14.10076141357422 46.32564544677734 22.75613403320312 C 48.06929779052734 30.4798583984375 53.51187133789062 34.18083190917969 60.81324768066406 34.54928588867188 C 61.15193176269531 34.56637573242188 61.486572265625 34.57511138916016 61.81641387939453 34.57511138916016 C 68.59718322753906 34.57511138916016 73.48038482666016 30.88783264160156 75.34111785888672 20.34368133544922 C 77.29239654541016 9.286605834960938 73.68624877929688 7.62939453125e-06 73.68624877929688 7.62939453125e-06 L 122.2290954589844 7.62939453125e-06 L 122.2290954589844 51.23748779296875 C 122.2290954589844 51.23748779296875 132.9969482421875 45.51663970947266 142.6650390625 45.51609039306641 C 143.8994140625 45.51602172851562 145.114501953125 45.60919952392578 146.2883758544922 45.81943511962891 C 156.3471984863281 47.62085723876953 161.4590911865234 53.94651031494141 161.4590911865234 62.344482421875 C 161.4590911865234 70.74246215820312 156.6952667236328 76.67495727539062 146.2883758544922 79.41136169433594 C 144.6422271728516 79.84420776367188 142.8864898681641 80.02517700195312 141.1033172607422 80.02517700195312 C 132.0337829589844 80.02517700195312 122.2290954589844 75.34780883789062 122.2290954589844 75.34780883789062 L 122.2290954589844 126.833610534668 L 0 126.833610534668 L 0 7.62939453125e-06 Z" stroke="none" fill="#e9f1ff"/>
      </g>
      <line id="Line_7" data-name="Line 7" x2="27" y2="143" transform="translate(196.5 820.5)" fill="none" stroke="#e9f1ff" stroke-width="5"/>
      <line id="Line_8" data-name="Line 8" x1="20" y2="140" transform="translate(334.5 823.5)" fill="none" stroke="#e9f1ff" stroke-width="5"/>
    </g>
    <circle id="Ellipse_19" data-name="Ellipse 19" cx="5.5" cy="5.5" r="5.5" transform="translate(141 1876)" fill="#2196f3"/>
    <circle id="Ellipse_20" data-name="Ellipse 20" cx="5.5" cy="5.5" r="5.5" transform="translate(190 1867)" fill="#2196f3"/>
    <path id="Path_36" data-name="Path 36" d="M0,8s12.352,5.147,22.1,3.147S37.935-1.52,37.935-1.52" transform="translate(157.5 1907.5)" fill="none" stroke="#2196f3" stroke-linecap="round" stroke-width="3"/>
    <circle id="Ellipse_21" data-name="Ellipse 21" cx="5.5" cy="5.5" r="5.5" transform="translate(327 1841)" fill="#2196f3"/>
  </g>
</svg>
