<svg xmlns="http://www.w3.org/2000/svg" width="83.29" height="99" viewBox="0 0 83.29 99">
  <g id="img-do-action" transform="translate(0.002 1.5)">
    <ellipse id="Ellipse_114" data-name="Ellipse 114" cx="14" cy="4" rx="14" ry="4" transform="translate(19.998 89.5)" fill="#2196f3" opacity="0.11"/>
    <line id="Line_79" data-name="Line 79" y1="9" transform="translate(62.498)" fill="none" stroke="#2196f3" stroke-linecap="round" stroke-width="3"/>
    <line id="Line_80" data-name="Line 80" y1="7" x2="6" transform="translate(68.498 5)" fill="none" stroke="#2196f3" stroke-linecap="round" stroke-width="3"/>
    <line id="Line_81" data-name="Line 81" y1="2" x2="9" transform="translate(72.498 16)" fill="none" stroke="#2196f3" stroke-linecap="round" stroke-width="3"/>
    <g id="Union_1" data-name="Union 1" transform="translate(0 16)" fill="#fff">
      <path d="M 31.49820137023926 56.27727890014648 L 25.80691146850586 50.58599090576172 L 25.22113037109375 50.00020217895508 L 24.3927001953125 50.00020217895508 L 4.997701168060303 50.00020217895508 C 3.343770980834961 50.00020217895508 1.998201131820679 48.65423202514648 1.998201131820679 46.99980163574219 L 1.998201131820679 5.000400543212891 C 1.998201131820679 3.345970630645752 3.343770980834961 2.000000715255737 4.997701168060303 2.000000715255737 L 61.9983024597168 2.000000715255737 C 63.65222930908203 2.000000715255737 64.997802734375 3.345970630645752 64.997802734375 5.000400543212891 L 64.997802734375 46.99980163574219 C 64.997802734375 48.65423202514648 63.65222930908203 50.00020217895508 61.9983024597168 50.00020217895508 L 38.60370254516602 50.00020217895508 L 37.77527236938477 50.00020217895508 L 37.18949127197266 50.58599090576172 L 31.49820137023926 56.27727890014648 Z" stroke="none"/>
      <path d="M 31.49820137023926 53.4488525390625 L 35.77527618408203 49.17177581787109 L 36.94684982299805 48.00020217895508 L 38.60370254516602 48.00020217895508 L 61.9983024597168 48.00020217895508 C 62.5494270324707 48.00020217895508 62.997802734375 47.55142593383789 62.997802734375 46.99980163574219 L 62.997802734375 5.000400543212891 C 62.997802734375 4.448775768280029 62.5494270324707 4.000000953674316 61.9983024597168 4.000000953674316 L 4.997701168060303 4.000000953674316 C 4.446576118469238 4.000000953674316 3.998201131820679 4.448775768280029 3.998201131820679 5.000400543212891 L 3.998201131820679 46.99980163574219 C 3.998201131820679 47.55142593383789 4.446576118469238 48.00020217895508 4.997701168060303 48.00020217895508 L 24.3927001953125 48.00020217895508 L 26.04955101013184 48.00020217895508 L 27.22112655639648 49.17177581787109 L 31.49820137023926 53.4488525390625 M 31.49820137023926 59.1057014465332 L 24.3927001953125 52.00020217895508 L 4.997701168060303 52.00020217895508 C 2.236501216888428 52.00020217895508 -0.00179890135768801 49.76100158691406 -0.00179890135768801 46.99980163574219 L -0.00179890135768801 5.000400543212891 C -0.00179890135768801 2.238300800323486 2.236501216888428 7.232666234813223e-07 4.997701168060303 7.232666234813223e-07 L 61.9983024597168 7.232666234813223e-07 C 64.75949859619141 7.232666234813223e-07 66.997802734375 2.238300800323486 66.997802734375 5.000400543212891 L 66.997802734375 46.99980163574219 C 66.997802734375 49.76100158691406 64.75949859619141 52.00020217895508 61.9983024597168 52.00020217895508 L 38.60370254516602 52.00020217895508 L 31.49820137023926 59.1057014465332 Z" stroke="none" fill="#2196f3"/>
    </g>
    <line id="Line_82" data-name="Line 82" x2="38" transform="translate(13.498 30.5)" fill="none" stroke="#2196f3" stroke-linecap="round" stroke-width="4"/>
    <line id="Line_83" data-name="Line 83" x2="38" transform="translate(13.498 40.5)" fill="none" stroke="#2196f3" stroke-linecap="round" stroke-width="4"/>
    <line id="Line_84" data-name="Line 84" x2="22" transform="translate(13.498 50.5)" fill="none" stroke="#2196f3" stroke-linecap="round" stroke-width="4"/>
  </g>
</svg>
