<svg xmlns="http://www.w3.org/2000/svg" width="1723.379" height="340.604" viewBox="0 0 1723.379 340.604">
  <g id="img-pricing-bg" transform="translate(-90.721 -247.5)">
    <g id="Group_101" data-name="Group 101" transform="translate(-12.287 -5422)">
      <path id="Path_74" data-name="Path 74" d="M34.168,0c18.87,0,34.168,20.5,34.168,20.5S53.039,41,34.168,41,0,20.5,0,20.5,15.3,0,34.168,0Z" transform="matrix(0.809, 0.588, -0.588, 0.809, 503.593, 5930.698)" fill="#e9e9e9"/>
      <path id="Path_75" data-name="Path 75" d="M44.26,33.9s-5.521-19.928-21.521-5.427S-7.652,44.418-7.652,44.418" transform="translate(519.721 5919.995) rotate(58)" fill="none" stroke="#e9e9e9" stroke-linecap="round" stroke-width="2"/>
    </g>
    <g id="Group_97" data-name="Group 97" transform="translate(-8.287 -5428)">
      <path id="Path_74-2" data-name="Path 74" d="M39.5,0C61.315,0,79,20.5,79,20.5S61.315,41,39.5,41,0,20.5,0,20.5,17.685,0,39.5,0Z" transform="matrix(0.809, 0.588, -0.588, 0.809, 503.593, 5931.698)" fill="#eef7fe"/>
      <path id="Path_75-2" data-name="Path 75" d="M65.217,60.432s-25.9-10.86-41.9-25.36S2.563,6.35,2.563,6.35" transform="translate(480.5 5926.5)" fill="none" stroke="#99b7f1" stroke-linecap="round" stroke-width="2"/>
    </g>
    <g id="Group_98" data-name="Group 98" transform="translate(-5641.965 -1247.26) rotate(-70)">
      <path id="Path_97" data-name="Path 97" d="M49.477,0C76.8,0,98.954,25.678,98.954,25.678S76.8,51.356,49.477,51.356,0,25.678,0,25.678,22.152,0,49.477,0Z" transform="translate(513.844 5936.098) rotate(47)" fill="#262c31" opacity="0.09"/>
      <path id="Path_74-3" data-name="Path 74" d="M49.477,0C76.8,0,98.954,25.678,98.954,25.678S76.8,51.356,49.477,51.356,0,25.678,0,25.678,22.152,0,49.477,0Z" transform="matrix(0.809, 0.588, -0.588, 0.809, 509.681, 5932.505)" fill="#eaf5fd"/>
      <path id="Path_75-3" data-name="Path 75" d="M79.763,75.914S49.25,62.093,29.208,43.93,0,0,0,0" transform="translate(480.099 5927.218)" fill="none" stroke="#99b7f1" stroke-linecap="round" stroke-width="2"/>
    </g>
    <g id="Group_99" data-name="Group 99" transform="translate(830.983 6453.008) rotate(-169)">
      <path id="Path_98" data-name="Path 98" d="M36.965,0C57.38,0,73.93,19.184,73.93,19.184S62.91,31.958,47.533,36.73c-.392.122-2.529-3.181-3.212-3-.245.067,1.244,3.552.706,3.684a34.747,34.747,0,0,1-8.063.951C16.55,38.369,0,19.184,0,19.184S9.51,8.16,23.682,2.588c.257-.1-.838,2.673-.307,2.485.386-.137,2.636-3.316,3.273-3.51A35.79,35.79,0,0,1,36.965,0Z" transform="matrix(0.921, 0.391, -0.391, 0.921, 499.848, 5932.393)" fill="#2a333a" opacity="0.15"/>
      <path id="Path_74-4" data-name="Path 74" d="M39.5,0C61.315,0,79,20.5,79,20.5S67.225,34.15,50.793,39.249c-.419.13-2.7-3.4-3.432-3.2-.262.072,1.329,3.8.755,3.936A37.13,37.13,0,0,1,39.5,41C17.685,41,0,20.5,0,20.5S10.162,8.72,25.307,2.766c.275-.109-.9,2.856-.328,2.655.412-.147,2.817-3.544,3.5-3.751A38.245,38.245,0,0,1,39.5,0Z" transform="matrix(0.809, 0.588, -0.588, 0.809, 503.593, 5931.698)" fill="#e7f3fd"/>
      <path id="Path_75-4" data-name="Path 75" d="M64,58S39.318,49.572,23.318,35.072,0,0,0,0" transform="translate(481.272 5927.137)" fill="none" stroke="#99b7f1" stroke-linecap="round" stroke-width="2"/>
    </g>
    <g id="Group_100" data-name="Group 100" transform="matrix(0.819, -0.574, 0.574, 0.819, -2052.451, -4028.004)">
      <path id="Path_99" data-name="Path 99" d="M45.818,14.422s-2.048.155-15.973-7.191A66.154,66.154,0,0,0,9,.755,64.044,64.044,0,0,0,0,0" transform="translate(474.335 5935.499) rotate(29)" fill="none" stroke="#1c1c1c" stroke-linecap="round" stroke-width="2" opacity="0.17"/>
      <path id="Path_100" data-name="Path 100" d="M26.261,0c14.5,0,26.261,13.629,26.261,13.629S40.765,27.259,26.261,27.259,0,13.629,0,13.629,11.758,0,26.261,0Z" transform="matrix(0.809, 0.588, -0.588, 0.809, 495.345, 5933.289)" fill="#d8d8d8"/>
      <path id="Path_74-5" data-name="Path 74" d="M28.8,0C44.707,0,57.6,14.947,57.6,14.947S44.707,29.895,28.8,29.895,0,14.947,0,14.947,12.895,0,28.8,0Z" transform="matrix(0.809, 0.588, -0.588, 0.809, 497.066, 5930.832)" fill="#eaf5fd"/>
      <path id="Path_75-5" data-name="Path 75" d="M49.771,41.725S28.668,36.145,17,25.572,0,0,0,0" transform="matrix(0.996, 0.087, -0.087, 0.996, 482.249, 5927.121)" fill="none" stroke="#99b7f1" stroke-linecap="round" stroke-width="2"/>
    </g>
  </g>
</svg>
