<svg xmlns="http://www.w3.org/2000/svg" width="250.07" height="137.803" viewBox="0 0 250.07 137.803">
  <g id="img-s-main-pazzle" transform="translate(-889.93 -292.006)">
    <g id="Path_33" data-name="Path 33" transform="translate(890.679 331.887) rotate(-11)" fill="none">
      <path d="M0,0H34.205s-2.243,9.438-.8,15.829a10.4,10.4,0,0,0,9.6,8.4c3.322,0,7.551-1.343,10.4-7.4S54.408,0,54.408,0H90.25V37.832s10.109-5.372,17.765-4c7.427,1.33,11.2,6,11.2,12.2s-3.517,10.581-11.2,12.6c-7.4,1.945-17.765-3-17.765-3V93.65H0Z" stroke="none"/>
      <path d="M 3.999992370605469 4 L 4.000007629394531 89.65006256103516 L 86.25028991699219 89.65007781982422 L 86.25028991699219 55.63454055786133 L 86.25028991699219 49.29447937011719 L 91.97256469726562 52.02429962158203 C 91.98831176757812 52.03181838989258 93.61305236816406 52.79705810546875 95.94754791259766 53.55854034423828 C 99.01535034179688 54.55921936035156 101.8643264770508 55.08815765380859 104.1864471435547 55.08815765380859 C 105.2400054931641 55.08815765380859 106.1858520507812 54.97991943359375 106.9977264404297 54.76643753051758 C 109.9684677124023 53.98529815673828 112.1476058959961 52.81293869018555 113.4746322631836 51.28187942504883 C 114.6467514038086 49.92955780029297 115.2165298461914 48.21271896362305 115.2165298461914 46.03327941894531 C 115.2165298461914 43.88602066040039 114.6085052490234 42.11225891113281 113.4093704223633 40.76129913330078 C 112.0788879394531 39.2623405456543 110.0266876220703 38.25559997558594 107.3097305297852 37.76902008056641 C 106.7117919921875 37.66193771362305 106.0490112304688 37.60765838623047 105.3397674560547 37.60770034790039 C 99.35198211669922 37.60803604125977 92.28565979003906 41.2814826965332 92.12464904785156 41.36587142944336 L 86.25028991699219 44.50679779052734 L 86.25028991699219 37.83219909667969 L 86.25028991699219 4 L 58.8737907409668 4 C 58.91735076904297 4.634628295898438 58.95302581787109 5.312599182128906 58.97483062744141 6.01983642578125 C 59.13562774658203 11.23459625244141 58.48040771484375 15.4444580078125 57.02737045288086 18.53245544433594 C 55.39266967773438 22.00657653808594 53.17501068115234 24.59809875488281 50.43602752685547 26.23503875732422 C 48.22064971923828 27.55905914306641 45.72090911865234 28.23040008544922 43.00628662109375 28.23040008544922 C 40.26589202880859 28.23040008544922 37.32472991943359 27.17617797851562 34.93698883056641 25.33805847167969 C 32.17671203613281 23.21314239501953 30.29770660400391 20.22963714599609 29.50321197509766 16.71023559570312 C 28.80387115478516 13.61281585693359 28.73308563232422 9.686256408691406 29.29283142089844 5.039680480957031 C 29.33580017089844 4.682945251464844 29.38090515136719 4.335906982421875 29.42727661132812 4 L 3.999992370605469 4 M -7.62939453125e-06 0 L 34.20545196533203 0 C 34.20545196533203 0 31.96206665039062 9.438438415527344 33.40499114990234 15.82929992675781 C 34.69245147705078 21.53225708007812 39.50914764404297 24.23040008544922 43.00628662109375 24.23040008544922 C 46.32817077636719 24.23040008544922 50.55767059326172 22.88703918457031 53.40802764892578 16.82942199707031 C 56.25836944580078 10.77182006835938 54.40769195556641 0 54.40769195556641 0 L 90.25028991699219 0 L 90.25028991699219 37.83219909667969 C 90.25028991699219 37.83219909667969 98.200927734375 33.60810470581055 105.3395538330078 33.60770034790039 C 106.2509841918945 33.60764694213867 107.1481704711914 33.67644882202148 108.0149307250977 33.83168029785156 C 115.4420471191406 35.16180038452148 119.2165298461914 39.83245849609375 119.2165298461914 46.03327941894531 C 119.2165298461914 52.23407745361328 115.6990661621094 56.61445999145508 108.0149307250977 58.63493728637695 C 106.7994689941406 58.95453643798828 105.5030822753906 59.08816146850586 104.1864395141602 59.08816146850586 C 97.48976135253906 59.08816146850586 90.25028991699219 55.63454055786133 90.25028991699219 55.63454055786133 L 90.25028991699219 93.65007781982422 L 7.62939453125e-06 93.65006256103516 L -7.62939453125e-06 0 Z" stroke="none" fill="#2196f3"/>
    </g>
    <g id="Path_120" data-name="Path 120" transform="translate(889.93 337.879) rotate(-11)" fill="#2196f3" opacity="0.12">
      <path d="M 88.25028228759766 91.65007019042969 L 2.000018358230591 91.65007019042969 L 2.000002384185791 2.000005483627319 L 31.763671875 2.000005483627319 C 31.16818237304688 5.36549711227417 30.37946891784668 11.51013088226318 31.45408630371094 16.26975631713867 C 32.1446533203125 19.32862281799316 33.7708854675293 21.91638946533203 36.15700149536133 23.75325584411621 C 38.20196914672852 25.32752227783203 40.69843673706055 26.23040580749512 43.00628662109375 26.23040580749512 C 46.74185180664062 26.23040580749512 51.89275360107422 24.74715614318848 55.21768569946289 17.68097305297852 C 56.5352668762207 14.88085556030273 57.12677001953125 10.97822189331055 56.97578430175781 6.081472396850586 C 56.92742156982422 4.512828826904297 56.80906677246094 3.099221706390381 56.69031524658203 2.000005483627319 L 88.25028228759766 2.000005483627319 L 88.25028228759766 37.83218765258789 L 88.25028228759766 41.1596565246582 L 91.188720703125 39.59835433959961 C 91.26293182373047 39.55905532836914 98.79866790771484 35.60768890380859 105.3395690917969 35.60768890380859 C 106.1670532226562 35.60768890380859 106.9485549926758 35.67250442504883 107.6623382568359 35.80035400390625 C 113.8234558105469 36.90373992919922 117.2165374755859 40.53785705566406 117.2165374755859 46.03327178955078 C 117.2165374755859 48.71479034423828 116.4869003295898 50.86008834838867 114.985969543457 52.59180450439453 C 113.390266418457 54.43282318115234 110.8737716674805 55.81523895263672 107.5063323974609 56.7006721496582 C 106.5287017822266 56.95774078369141 105.4117050170898 57.08810424804688 104.1863555908203 57.08815383911133 C 98.01377105712891 57.0883903503418 91.17978668212891 53.86203765869141 91.11146545410156 53.8294563293457 L 88.25028228759766 52.46440505981445 L 88.25028228759766 55.63454055786133 L 88.25028228759766 91.65007019042969 Z" stroke="none"/>
      <path d="M 3.999992370605469 4 L 4.000007629394531 89.65006256103516 L 86.25028991699219 89.65007781982422 L 86.25028991699219 55.63454055786133 L 86.25028991699219 49.29447937011719 L 91.97256469726562 52.02429962158203 C 91.98831176757812 52.03181838989258 93.61305236816406 52.79705810546875 95.94754791259766 53.55854034423828 C 99.01535034179688 54.55921936035156 101.8643264770508 55.08815765380859 104.1864471435547 55.08815765380859 C 105.2400054931641 55.08815765380859 106.1858520507812 54.97991943359375 106.9977264404297 54.76643753051758 C 109.9684677124023 53.98529815673828 112.1476058959961 52.81293869018555 113.4746322631836 51.28187942504883 C 114.6467514038086 49.92955780029297 115.2165298461914 48.21271896362305 115.2165298461914 46.03327941894531 C 115.2165298461914 43.88602066040039 114.6085052490234 42.11225891113281 113.4093704223633 40.76129913330078 C 112.0788879394531 39.2623405456543 110.0266876220703 38.25559997558594 107.3097305297852 37.76902008056641 C 106.7117919921875 37.66193771362305 106.0490112304688 37.60765838623047 105.3397674560547 37.60770034790039 C 99.35198211669922 37.60803604125977 92.28565979003906 41.2814826965332 92.12464904785156 41.36587142944336 L 86.25028991699219 44.50679779052734 L 86.25028991699219 37.83219909667969 L 86.25028991699219 4 L 58.8737907409668 4 C 58.91735076904297 4.634628295898438 58.95302581787109 5.312599182128906 58.97483062744141 6.01983642578125 C 59.13562774658203 11.23459625244141 58.48040771484375 15.4444580078125 57.02737045288086 18.53245544433594 C 55.39266967773438 22.00657653808594 53.17501068115234 24.59809875488281 50.43602752685547 26.23503875732422 C 48.22064971923828 27.55905914306641 45.72090911865234 28.23040008544922 43.00628662109375 28.23040008544922 C 40.26589202880859 28.23040008544922 37.32472991943359 27.17617797851562 34.93698883056641 25.33805847167969 C 32.17671203613281 23.21314239501953 30.29770660400391 20.22963714599609 29.50321197509766 16.71023559570312 C 28.80387115478516 13.61281585693359 28.73308563232422 9.686256408691406 29.29283142089844 5.039680480957031 C 29.33580017089844 4.682945251464844 29.38090515136719 4.335906982421875 29.42727661132812 4 L 3.999992370605469 4 M -7.62939453125e-06 0 L 34.20545196533203 0 C 34.20545196533203 0 31.96206665039062 9.438438415527344 33.40499114990234 15.82929992675781 C 34.69245147705078 21.53225708007812 39.50914764404297 24.23040008544922 43.00628662109375 24.23040008544922 C 46.32817077636719 24.23040008544922 50.55767059326172 22.88703918457031 53.40802764892578 16.82942199707031 C 56.25836944580078 10.77182006835938 54.40769195556641 0 54.40769195556641 0 L 90.25028991699219 0 L 90.25028991699219 37.83219909667969 C 90.25028991699219 37.83219909667969 98.200927734375 33.60810470581055 105.3395538330078 33.60770034790039 C 106.2509841918945 33.60764694213867 107.1481704711914 33.67644882202148 108.0149307250977 33.83168029785156 C 115.4420471191406 35.16180038452148 119.2165298461914 39.83245849609375 119.2165298461914 46.03327941894531 C 119.2165298461914 52.23407745361328 115.6990661621094 56.61445999145508 108.0149307250977 58.63493728637695 C 106.7994689941406 58.95453643798828 105.5030822753906 59.08816146850586 104.1864395141602 59.08816146850586 C 97.48976135253906 59.08816146850586 90.25028991699219 55.63454055786133 90.25028991699219 55.63454055786133 L 90.25028991699219 93.65007781982422 L 7.62939453125e-06 93.65006256103516 L -7.62939453125e-06 0 Z" stroke="none" fill="#2196f3"/>
    </g>
    <g id="Path_34" data-name="Path 34" transform="translate(1025.725 412.041) rotate(-83)" fill="none">
      <path d="M0,0H34.7s-1.464,10.562,0,17.045c1.306,5.785,5.383,8.557,10.852,8.833s9.42-2.358,10.882-10.64A31.324,31.324,0,0,0,55.193,0h36.36V38.378s10.255-5.449,18.021-4.058c7.534,1.349,11.363,6.087,11.363,12.378s-3.568,10.734-11.363,12.783c-7.5,1.973-18.021-3.044-18.021-3.044V95H0Z" stroke="none"/>
      <path d="M 4 4.000007629394531 L 4 91.00140380859375 L 87.55245971679688 91.00140380859375 L 87.55245971679688 56.43732452392578 L 87.55245971679688 50.09726715087891 L 93.27471923828125 52.82708740234375 C 93.29074096679688 52.83472442626953 94.9423828125 53.61264419555664 97.31402587890625 54.38624572753906 C 100.4318008422852 55.40322494506836 103.3280639648438 55.94076538085938 105.6897048950195 55.94076538085938 C 106.7633819580078 55.94076538085938 107.7278213500977 55.83032608032227 108.5562210083008 55.61250686645508 C 111.5812606811523 54.81708526611328 113.8016052246094 53.62174606323242 115.1555252075195 52.05964660644531 C 116.3540420532227 50.67686462402344 116.9366455078125 48.92290496826172 116.9366455078125 46.69750595092773 C 116.9366455078125 44.50470733642578 116.3149642944336 42.69248580932617 115.0888595581055 41.3111457824707 C 113.7303619384766 39.78062438964844 111.6374664306641 38.75312423706055 108.8682250976562 38.25718688964844 C 108.2583618164062 38.14796447753906 107.5825805664062 38.09258651733398 106.8597030639648 38.09262466430664 C 100.7670135498047 38.09298324584961 93.58171081542969 41.83052444458008 93.42662048339844 41.91185760498047 L 87.55245971679688 45.05238723754883 L 87.55245971679688 38.37808609008789 L 87.55245971679688 4.000007629394531 L 60.32760620117188 4.000007629394531 C 60.86692810058594 7.133613586425781 61.18013000488281 11.35038757324219 60.37142181396484 15.93304443359375 C 59.54574203491211 20.61186218261719 57.96508407592773 24.03422546386719 55.53912353515625 26.39568328857422 C 53.15198516845703 28.71938323974609 50.04414367675781 29.8975830078125 46.30190277099609 29.8975830078125 C 45.99076080322266 29.8975830078125 45.67014312744141 29.88936614990234 45.34894561767578 29.8731689453125 C 37.72838592529297 29.48860931396484 32.42448425292969 25.13392639160156 30.79720306396484 17.92582702636719 C 29.82523345947266 13.62085723876953 29.98458099365234 7.926338195800781 30.27587127685547 4.000007629394531 L 4 4.000007629394531 M 0 7.62939453125e-06 L 34.69898223876953 7.62939453125e-06 C 34.69898223876953 7.62939453125e-06 33.23524475097656 10.56180572509766 34.69898223876953 17.04488372802734 C 36.00504302978516 22.83014678955078 40.08164215087891 25.60226440429688 45.55054473876953 25.87824249267578 C 45.80422973632812 25.89104461669922 46.05484008789062 25.89759063720703 46.30190277099609 25.89759063720703 C 51.380859375 25.89759063720703 55.03853607177734 23.13573455810547 56.43228149414062 15.23790740966797 C 57.89382171630859 6.955902099609375 55.19272613525391 7.62939453125e-06 55.19272613525391 7.62939453125e-06 L 91.55245971679688 7.62939453125e-06 L 91.55245971679688 38.37808609008789 C 91.55245971679688 38.37808609008789 99.61782836914062 34.09304809570312 106.8594589233398 34.09263610839844 C 107.7840347290039 34.09258270263672 108.6941604614258 34.16237640380859 109.5734252929688 34.31984710693359 C 117.1077194213867 35.66916656494141 120.9366455078125 40.4072265625 120.9366455078125 46.69750595092773 C 120.9366455078125 52.9878044128418 117.3684463500977 57.43136596679688 109.5734252929688 59.48100662231445 C 108.3404235839844 59.80521392822266 107.0253372192383 59.94076919555664 105.689697265625 59.94076919555664 C 98.89640045166016 59.94076919555664 91.55245971679688 56.43732452392578 91.55245971679688 56.43732452392578 L 91.55245971679688 95.00140380859375 L 0 95.00140380859375 L 0 7.62939453125e-06 Z" stroke="none" fill="#2196f3"/>
    </g>
    <g id="Path_119" data-name="Path 119" transform="translate(1030.968 415.786) rotate(-83)" fill="#2196f3" opacity="0.07">
      <path d="M 89.55247497558594 93.00140380859375 L 2.000006198883057 93.00140380859375 L 2.000006198883057 2.000005722045898 L 32.45534133911133 2.000005722045898 C 32.09946823120117 5.56307315826416 31.63140487670898 12.53946208953857 32.74808883666992 17.48535537719727 C 33.48470687866211 20.74823951721191 35.02835464477539 23.3123893737793 37.33617401123047 25.10652160644531 C 39.49008941650391 26.78103828430176 42.21989059448242 27.71272277832031 45.44973754882812 27.87570571899414 C 45.73754119873047 27.89022254943848 46.02423858642578 27.8975887298584 46.30190658569336 27.8975887298584 C 49.5048713684082 27.8975887298584 52.14337158203125 26.91010665893555 54.14408874511719 24.96255493164062 C 56.25890731811523 22.90395545959473 57.6516227722168 19.83668899536133 58.40184020996094 15.58547210693359 C 59.39448547363281 9.960579872131348 58.59941864013672 4.941314697265625 57.87625122070312 2.000005722045898 L 89.55245971679688 2.000005722045898 L 89.55245971679688 38.37808990478516 L 89.55245971679688 41.7055549621582 L 92.49089050292969 40.14425659179688 C 92.56625366210938 40.10433959960938 100.2167205810547 36.0926399230957 106.8594360351562 36.0926399230957 C 107.7005920410156 36.0926399230957 108.4950714111328 36.15855407714844 109.2208404541016 36.28853988647461 C 115.4861755371094 37.41057205200195 118.936637878418 41.10722351074219 118.936637878418 46.69750595092773 C 118.936637878418 49.42495727539062 118.1941909790039 51.607421875 116.6668395996094 53.36959075927734 C 115.0442581176758 55.24163818359375 112.486572265625 56.64703750610352 109.0648422241211 57.54675674438477 C 108.0707092285156 57.80815505981445 106.9351196289062 57.94072341918945 105.6896209716797 57.94077301025391 C 99.44537353515625 57.94102096557617 92.4820556640625 54.66475677490234 92.41245269775391 54.63165664672852 L 89.55370330810547 53.27250671386719 L 89.55247497558594 56.43732070922852 L 89.55247497558594 93.00140380859375 Z" stroke="none"/>
      <path d="M 4 4.000007629394531 L 4 91.00140380859375 L 87.55245971679688 91.00140380859375 L 87.55245971679688 56.43732452392578 L 87.55245971679688 50.09726715087891 L 93.27471923828125 52.82708740234375 C 93.29074096679688 52.83472442626953 94.9423828125 53.61264419555664 97.31402587890625 54.38624572753906 C 100.4318008422852 55.40322494506836 103.3280639648438 55.94076538085938 105.6897048950195 55.94076538085938 C 106.7633819580078 55.94076538085938 107.7278213500977 55.83032608032227 108.5562210083008 55.61250686645508 C 111.5812606811523 54.81708526611328 113.8016052246094 53.62174606323242 115.1555252075195 52.05964660644531 C 116.3540420532227 50.67686462402344 116.9366455078125 48.92290496826172 116.9366455078125 46.69750595092773 C 116.9366455078125 44.50470733642578 116.3149642944336 42.69248580932617 115.0888595581055 41.3111457824707 C 113.7303619384766 39.78062438964844 111.6374664306641 38.75312423706055 108.8682250976562 38.25718688964844 C 108.2583618164062 38.14796447753906 107.5825805664062 38.09258651733398 106.8597030639648 38.09262466430664 C 100.7670135498047 38.09298324584961 93.58171081542969 41.83052444458008 93.42662048339844 41.91185760498047 L 87.55245971679688 45.05238723754883 L 87.55245971679688 38.37808609008789 L 87.55245971679688 4.000007629394531 L 60.32760620117188 4.000007629394531 C 60.86692810058594 7.133613586425781 61.18013000488281 11.35038757324219 60.37142181396484 15.93304443359375 C 59.54574203491211 20.61186218261719 57.96508407592773 24.03422546386719 55.53912353515625 26.39568328857422 C 53.15198516845703 28.71938323974609 50.04414367675781 29.8975830078125 46.30190277099609 29.8975830078125 C 45.99076080322266 29.8975830078125 45.67014312744141 29.88936614990234 45.34894561767578 29.8731689453125 C 37.72838592529297 29.48860931396484 32.42448425292969 25.13392639160156 30.79720306396484 17.92582702636719 C 29.82523345947266 13.62085723876953 29.98458099365234 7.926338195800781 30.27587127685547 4.000007629394531 L 4 4.000007629394531 M 0 7.62939453125e-06 L 34.69898223876953 7.62939453125e-06 C 34.69898223876953 7.62939453125e-06 33.23524475097656 10.56180572509766 34.69898223876953 17.04488372802734 C 36.00504302978516 22.83014678955078 40.08164215087891 25.60226440429688 45.55054473876953 25.87824249267578 C 45.80422973632812 25.89104461669922 46.05484008789062 25.89759063720703 46.30190277099609 25.89759063720703 C 51.380859375 25.89759063720703 55.03853607177734 23.13573455810547 56.43228149414062 15.23790740966797 C 57.89382171630859 6.955902099609375 55.19272613525391 7.62939453125e-06 55.19272613525391 7.62939453125e-06 L 91.55245971679688 7.62939453125e-06 L 91.55245971679688 38.37808609008789 C 91.55245971679688 38.37808609008789 99.61782836914062 34.09304809570312 106.8594589233398 34.09263610839844 C 107.7840347290039 34.09258270263672 108.6941604614258 34.16237640380859 109.5734252929688 34.31984710693359 C 117.1077194213867 35.66916656494141 120.9366455078125 40.4072265625 120.9366455078125 46.69750595092773 C 120.9366455078125 52.9878044128418 117.3684463500977 57.43136596679688 109.5734252929688 59.48100662231445 C 108.3404235839844 59.80521392822266 107.0253372192383 59.94076919555664 105.689697265625 59.94076919555664 C 98.89640045166016 59.94076919555664 91.55245971679688 56.43732452392578 91.55245971679688 56.43732452392578 L 91.55245971679688 95.00140380859375 L 0 95.00140380859375 L 0 7.62939453125e-06 Z" stroke="none" fill="#2196f3"/>
    </g>
    <ellipse id="Ellipse_20" data-name="Ellipse 20" cx="4.12" cy="4.12" rx="4.12" ry="4.12" transform="translate(957.395 357.166)" fill="#2196f3"/>
    <path id="Path_37" data-name="Path 37" d="M4.12,6.348c2.275,0,4.12-3.386,4.12-1.111A4.12,4.12,0,0,1,0,5.237C0,2.961,1.844,6.348,4.12,6.348Z" transform="translate(1060.011 336.575)" fill="#2196f3"/>
  </g>
</svg>
