<svg xmlns="http://www.w3.org/2000/svg" width="113.076" height="168.803" viewBox="0 0 113.076 168.803">
  <g id="img-why-reliable" transform="translate(-1415 -6135.197)">
    <ellipse id="Ellipse_119" data-name="Ellipse 119" cx="38.5" cy="7.5" rx="38.5" ry="7.5" transform="translate(1439 6289)" fill="#e2eafa"/>
    <g id="high-five" transform="translate(1415 6135.197)">
      <g id="Group_129" data-name="Group 129" transform="translate(89.766 108.687)">
        <g id="Group_128" data-name="Group 128">
          <path id="Path_161" data-name="Path 161" d="M410.185,492.647a2.208,2.208,0,1,0,.647,1.562A2.222,2.222,0,0,0,410.185,492.647Z" transform="translate(-406.414 -492)" fill="#4f81e2"/>
        </g>
      </g>
      <g id="Group_131" data-name="Group 131" transform="translate(41.5)">
        <g id="Group_130" data-name="Group 130">
          <path id="Path_162" data-name="Path 162" d="M257.976,37.08a8.639,8.639,0,0,0-5.669-3.652,8.735,8.735,0,0,0-9.178,4.45V14.568a8.559,8.559,0,0,0-12.812-7.434,8.564,8.564,0,0,0-16.887,0,8.558,8.558,0,0,0-12.77,6.6,8.56,8.56,0,0,0-12.732,7.48,2.209,2.209,0,0,0,4.418,0,4.147,4.147,0,0,1,8.272-.43V26.67a2.209,2.209,0,0,0,4.418,0v-12.1a4.147,4.147,0,0,1,8.272-.43V31.326c0,.1.023.836.023.836a2.209,2.209,0,0,0,4.418,0V14.568c0-.2-.009-.393-.023-.588V8.565a4.147,4.147,0,0,1,8.294,0v5.415c-.013.194-.023.39-.023.588V45.636a2.209,2.209,0,0,0,4.418,0l.022-31.5a4.147,4.147,0,0,1,8.272.43V47.246a3.146,3.146,0,0,0,6.2.749l1.719-7.014a4.287,4.287,0,0,1,8.37,1.85l-3.328,16.878A28.839,28.839,0,0,1,243.715,74.6l-6.872,6.852a2.209,2.209,0,0,0-.649,1.564v19.7a2.209,2.209,0,0,0,4.418,0V83.935l6.223-6.2a33.242,33.242,0,0,0,9.173-17.166l3.328-16.878A8.641,8.641,0,0,0,257.976,37.08Z" transform="translate(-187.927)" fill="#4f81e2"/>
        </g>
      </g>
      <g id="Group_133" data-name="Group 133" transform="translate(50.483 68.261)">
        <g id="Group_132" data-name="Group 132">
          <path id="Path_163" data-name="Path 163" d="M243.611,309a2.209,2.209,0,0,0-2.209,2.209v6.479a26.965,26.965,0,0,1-7.978,19.223l-4.186,4.174a2.208,2.208,0,0,0-.649,1.564v8.987a2.209,2.209,0,1,0,4.418,0v-8.07l3.537-3.527a31.353,31.353,0,0,0,9.277-22.351v-6.479A2.209,2.209,0,0,0,243.611,309Z" transform="translate(-228.588 -309)" fill="#4f81e2"/>
        </g>
      </g>
      <g id="Group_135" data-name="Group 135" transform="translate(63.296 60.419)">
        <g id="Group_134" data-name="Group 134">
          <path id="Path_164" data-name="Path 164" d="M290.364,274.147a2.208,2.208,0,1,0,.647,1.562A2.226,2.226,0,0,0,290.364,274.147Z" transform="translate(-286.593 -273.5)" fill="#4f81e2"/>
        </g>
      </g>
      <g id="Group_137" data-name="Group 137" transform="translate(0 23.539)">
        <g id="Group_136" data-name="Group 136" transform="translate(0)">
          <path id="Path_165" data-name="Path 165" d="M59.581,118.474a8.146,8.146,0,0,0-3.823.949,8.2,8.2,0,0,0-12.047-6.215,8.2,8.2,0,0,0-16.1,0A8.2,8.2,0,0,0,15.5,120.414v21.5a8.36,8.36,0,0,0-8.545-3.845,8.332,8.332,0,0,0-6.728,9.817l3.137,15.907a31.456,31.456,0,0,0,8.68,16.244l5.827,5.811v8.07a2.209,2.209,0,0,0,4.418,0v-8.987a2.21,2.21,0,0,0-.649-1.564L15.164,176.9A27.052,27.052,0,0,1,7.7,162.933L4.562,147.026a3.914,3.914,0,0,1,7.641-1.689l1.621,6.611a3.092,3.092,0,0,0,6.095-.736v-30.8a3.781,3.781,0,0,1,7.542-.4v16.189a2.209,2.209,0,0,0,2.209,2.209h.021a2.209,2.209,0,0,0,2.209-2.209V120.413c0-.188-.009-.374-.021-.558v-5.1a3.782,3.782,0,0,1,7.564,0v5.1c-.013.185-.021.37-.021.558v15.793a2.209,2.209,0,0,0,2.209,2.209h.021a2.209,2.209,0,0,0,2.209-2.209V120.017a3.781,3.781,0,0,1,7.542.4l-.021,15.793a2.209,2.209,0,0,0,2.209,2.209h.021a2.209,2.209,0,0,0,2.209-2.209v-9.93a3.782,3.782,0,0,1,7.542.4v10.319a2.209,2.209,0,1,0,4.418,0V126.673A8.209,8.209,0,0,0,59.581,118.474Z" transform="translate(-0.067 -106.556)" fill="#4f81e2"/>
        </g>
      </g>
      <g id="Group_139" data-name="Group 139" transform="translate(17.454 0.006)">
        <g id="Group_138" data-name="Group 138">
          <path id="Path_166" data-name="Path 166" d="M94.5,12.321,82.848.673A2.209,2.209,0,0,0,79.723,3.8L91.372,15.445A2.209,2.209,0,0,0,94.5,12.321Z" transform="translate(-79.076 -0.026)" fill="#4f81e2"/>
        </g>
      </g>
      <g id="Group_141" data-name="Group 141" transform="translate(17.459 18.221)">
        <g id="Group_140" data-name="Group 140">
          <path id="Path_167" data-name="Path 167" d="M86.7,82.481H81.31a2.209,2.209,0,1,0,0,4.418H86.7a2.209,2.209,0,1,0,0-4.418Z" transform="translate(-79.101 -82.481)" fill="#4f81e2"/>
        </g>
      </g>
      <g id="Group_143" data-name="Group 143" transform="translate(35.568)">
        <g id="Group_142" data-name="Group 142">
          <path id="Path_168" data-name="Path 168" d="M163.283,0a2.209,2.209,0,0,0-2.209,2.209V7.78a2.209,2.209,0,0,0,4.418,0V2.209A2.209,2.209,0,0,0,163.283,0Z" transform="translate(-161.074)" fill="#4f81e2"/>
        </g>
      </g>
    </g>
    <g id="Ellipse_120" data-name="Ellipse 120" transform="translate(1432.981 6242.908)" fill="#4f81e2" stroke="#4f81e2" stroke-width="3">
      <ellipse cx="18.431" cy="4.046" rx="18.431" ry="4.046" stroke="none"/>
      <ellipse cx="18.431" cy="4.046" rx="16.931" ry="2.546" fill="none"/>
    </g>
    <g id="Ellipse_121" data-name="Ellipse 121" transform="translate(1468.944 6234.816)" fill="#4f81e2" stroke="#4f81e2" stroke-width="3">
      <ellipse cx="19.78" cy="4.046" rx="19.78" ry="4.046" stroke="none"/>
      <ellipse cx="19.78" cy="4.046" rx="18.28" ry="2.546" fill="none"/>
    </g>
  </g>
</svg>
